PathFileType	4	(X/Y/Z)	RBDS002\RBDS002runT45.trc
DataRate	CameraRate	NumFrames	NumMarkers	Units	OrigDataRate	OrigDataStartFrame	OrigNumFrames
150.000000	150.000000	6	33	mm	150.000000	1687	4500
Frame#	Time	L.ASIS			L.Heel.Bottom			L.Heel.Lateral			L.Heel.Top			L.Iliac.Crest			L.MT1			L.MT5			L.PSIS			L.Shank.Bottom.Lateral			L.Shank.Bottom.Medial			L.Shank.Top.Lateral			L.Shank.Top.Medial			L.Thigh.Bottom.Lateral			L.Thigh.Bottom.Medial			L.Thigh.Top.Lateral			L.Thigh.Top.Medial			R.ASIS			R.ASY			R.Heel.Bottom			R.Heel.Lateral			R.Heel.Top			R.Iliac.Crest			R.MT1			R.MT5			R.PSIS			R.Shank.Bottom.Lateral			R.Shank.Bottom.Medial			R.Shank.Top.Lateral			R.Shank.Top.Medial			R.Thigh.Bottom.Lateral			R.Thigh.Bottom.Medial			R.Thigh.Top.Lateral			R.Thigh.Top.Medial			
		X1	Y1	Z1	X2	Y2	Z2	X3	Y3	Z3	X4	Y4	Z4	X5	Y5	Z5	X6	Y6	Z6	X7	Y7	Z7	X8	Y8	Z8	X9	Y9	Z9	X10	Y10	Z10	X11	Y11	Z11	X12	Y12	Z12	X13	Y13	Z13	X14	Y14	Z14	X15	Y15	Z15	X16	Y16	Z16	X17	Y17	Z17	X18	Y18	Z18	X19	Y19	Z19	X20	Y20	Z20	X21	Y21	Z21	X22	Y22	Z22	X23	Y23	Z23	X24	Y24	Z24	X25	Y25	Z25	X26	Y26	Z26	X27	Y27	Z27	X28	Y28	Z28	X29	Y29	Z29	X30	Y30	Z30	X31	Y31	Z31	X32	Y32	Z32	X33	Y33	Z33	

1688	11.24666666666667	2355.046212242136	975.8552045015074	960.2039851583194	2172.02311489495	50.90126683391123	1062.426172573371	2202.547030615579	57.92037010009807	1014.630097883536	2189.507618189909	99.01547587130418	1059.721989678801	2269.521770897423	1040.804187404949	907.0009411798396	2404.511825156186	53.42806980414365	1091.944064857283	2365.078672907424	39.16032632344935	979.0537109474	2171.817573160135	1006.537792006368	1036.984338747546	2291.735450263034	158.91610366045	992.9926942835161	2252.01590292551	180.7364028890059	1017.451418125517	2316.743575535269	230.6186809847267	963.3488400680576	2278.170262615466	256.4775350655916	990.4401239386635	2395.184683387479	554.2955633053559	918.1156983712212	2350.867459807753	536.9057913861337	974.1791524546168	2334.293538815158	644.6733609278542	900.5469863400011	2291.725956596424	627.6645086310281	951.8490266084654	2364.85921485779	933.2426717174552	1164.49871928856	1872.509383968218	478.432403388671	1128.860010525085	1919.706648137366	666.3157972396569	1081.094613887615	1918.350980208749	647.1134721372254	1124.67808523364	1956.025508399902	629.9493881478326	1090.49101588297	2309.49639184194	1022.506482270617	1224.178065209281	1809.497827946499	454.8222550418586	1089.289726125507	1819.887814847285	509.0387963338315	1186.989501534104	2179.527494417013	991.9946182271098	1124.862417394764	2006.277348516304	561.6491864812083	1166.967124701553	2023.314351450965	593.163842191325	1125.292140424878	2084.540645012837	546.2732233477274	1184.322781473894	2099.90865154963	576.1825209176094	1142.0783795349	2289.823604582697	509.7956651546211	1211.095992182446	2251.286954314992	517.7421245503006	1144.420774475126	2261.157595805213	615.0412122549411	1227.885224847534	2218.400048542816	612.5227139816351	1172.379530424628	
1689	11.25333333333333	2351.155196850256	974.3651829775692	959.632800489425	2142.019759776981	52.24068018733792	1061.703968314785	2172.657836024736	58.86544882770892	1013.970885185995	2159.698584998601	100.1936230125673	1058.721437614403	2266.832543777744	1039.473303034087	908.0514717071486	2373.917121363662	54.04982343882547	1091.495524597623	2334.758338568807	39.21473515588696	978.8826223116529	2168.965444756685	1006.081173062036	1038.669818220932	2264.894086508358	159.3296267255098	992.305870299293	2225.723348631395	182.5816084708494	1016.353588969589	2292.64274452541	230.0636677853243	962.6006518683409	2254.81770625955	257.3131475977834	989.2786563498935	2381.570146195448	550.080914646164	917.8680206037473	2337.428984136367	534.0133557090833	974.5822703757233	2323.061784485423	642.0143176518476	900.925047866018	2280.632427855945	626.3297592220022	952.8697172811995	2362.991484034266	931.7048881130307	1164.052456003246	1894.349742715984	469.9326172087861	1130.39061629445	1935.117541741022	659.5161720973425	1083.979815329523	1934.821597116114	640.0395983161781	1127.575180685311	1972.501687225025	624.3131795313662	1092.560928084881	2305.962297711756	1021.395946717167	1224.69265071188	1831.926718695017	444.5576809074306	1091.080959099565	1841.344595108457	498.2274376437136	1189.056054860452	2176.955068285455	991.5320650886975	1125.977693905734	2025.818032061426	556.5210411678681	1168.611538500085	2042.091597500116	588.4811997387575	1127.072910657202	2104.404674478742	542.6467750768738	1185.773415015446	2119.040027074263	572.9038287056712	1143.602678926962	2307.893413013016	509.8233896786273	1212.806078492332	2268.979181449692	517.290857615072	1145.853541546157	2273.501851897731	613.1760967194796	1229.739871606178	2230.404451368744	608.0168081112621	1174.693730102998	
1690	11.26	2347.642013907398	973.2550572505769	959.1933999844968	2111.949294901855	53.44747064868618	1061.092710458236	2142.639658230173	59.58653967677635	1013.374758758535	2129.815500678663	101.24676163109	1057.745829643725	2263.689625182359	1038.925469557605	909.0901093711672	2343.346205260182	54.49106920485661	1090.884560989219	2304.331525825688	39.00972684329959	978.5953094078588	2166.338879198845	1006.003480160089	1040.163751846349	2237.457313200242	159.5273655613627	991.5949903936859	2198.900349816314	184.0394645593649	1015.361741660429	2267.587189076706	229.2651107162468	961.8518789060004	2230.577743575236	257.7669587163934	988.222194078209	2366.647864563102	545.9480157775985	917.4675912320453	2322.382131261187	531.1795215577542	974.5322256837475	2310.949342561685	639.6494427569062	901.1981418101074	2268.449310105299	625.303408078144	953.5746986711516	2361.07055128551	931.0046470531653	1164.002491550355	1916.469368212819	459.9073984732866	1131.839230041692	1948.963194518795	651.2275741487979	1087.406972134457	1950.026222976839	631.4265523508284	1130.987667170401	1987.655074015876	617.5726876404507	1094.955515163819	2301.861460846532	1021.119080159238	1225.263201113631	1854.847344328878	432.3910425853775	1092.822560643223	1863.068046813479	485.1879547099483	1191.22596687909	2174.496555471336	991.6050040466378	1126.87134242149	2044.719734571391	550.6757420232427	1170.295489373607	2059.866284701225	583.3469038960818	1129.004171014428	2123.696743772329	538.9768297147607	1187.163414157702	2137.252749994561	569.8378055121899	1145.173099013281	2326.261241505325	511.732995449064	1214.196662605777	2287.013184882499	518.4820089346484	1147.223131435444	2286.046886289073	612.8398821649781	1231.396467126434	2242.764176438874	604.9399079012475	1176.876266291105	
1691	11.26666666666667	2344.600231768442	972.4692927503951	958.9183198261809	2081.775281486199	54.62842373501672	1060.670927227223	2112.466777880771	60.24127291376256	1012.926391817732	2099.84600824386	102.2907040532782	1056.936249064502	2260.241507931605	1039.094341330092	910.026854507641	2312.796372295382	54.73144198106827	1090.241910521337	2273.778056915641	38.65082286545866	978.2889547471253	2164.030374056838	1006.310045850579	1041.374959030348	2209.459602257519	159.6330416953562	991.0145237915671	2171.562989750234	185.2493975874155	1014.630162851365	2241.638497913764	228.3728220317295	961.2422449996801	2205.490766451032	257.9999886040377	987.4132483499861	2350.557992162755	542.0278411594908	916.9533101100163	2305.856366526143	528.550862809361	974.0676332227795	2298.075555126478	637.6623508303835	901.3742816968853	2255.282261046351	624.6693016425738	953.9630224694668	2359.153405761395	931.1387582486228	1164.37117070334	1938.92012129677	448.4959744559338	1133.202959218253	1961.308467335931	641.3374459288091	1091.26440473626	1964.010511474594	621.2201673615151	1134.800006993289	2001.514706612397	609.651185197528	1097.626641285756	2297.324398369789	1021.580455096278	1225.859457099696	1878.366166900148	418.4574245832283	1094.501050825217	1885.156656786	470.0992731167836	1193.463572917099	2172.23247435341	992.1773313365519	1127.497289437521	2062.935977739318	544.143139508775	1171.991585342096	2076.594618745974	577.7393645791166	1131.041344659286	2142.313415879297	535.2830180067864	1188.476759415133	2154.447657449366	566.9559327418451	1146.75756384993	2344.621692168745	515.5540583853415	1215.213378076294	2305.143177884401	521.2166903553048	1148.481765095685	2298.58796773137	614.0901636077916	1232.756503310738	2255.288401168588	603.3871770561839	1178.815509412168	
1692	11.27333333333333	2342.096794254307	971.961014134127	958.8185561715544	2051.477402281746	55.94375246863804	1060.467825747516	2082.139548647338	61.02022317864824	1012.66543342419	2069.795407777205	103.4874423882273	1056.366860400083	2256.693448679057	1039.902890160159	910.7899470689241	2282.256548169371	54.7855192935813	1089.685500074175	2243.091530432258	38.25110525788653	978.0516098336255	2162.112613319599	1007.01111953167	1042.218696851293	2180.970453012694	159.8370094978007	990.6649821959434	2143.760943730726	186.4183991147649	1014.252439255139	2214.905647555817	227.603290498988	960.8669113983433	2179.640469562648	258.2373627349938	986.9439388524784	2333.489613556852	538.495949394644	916.3866380335392	2288.057134529649	526.3299817867021	973.2676571747556	2284.597799558917	636.1666315800393	901.4792241623786	2241.292976039665	624.551686405617	954.0638382812111	2357.296418254605	932.0863685799818	1165.140172515004	1961.772736891842	435.8556276307628	1134.494121771567	1972.329520035406	629.7287097038657	1095.412400697201	1976.911896433656	609.3679129315841	1138.868709407825	2014.202695894671	600.4523367801833	1100.511771296197	2292.515594057621	1022.685468813276	1226.439421197219	1902.610543846023	402.9322012553805	1096.113379408259	1907.733274999041	453.1977669882325	1195.732505599882	2170.230994582036	993.2245485650233	1127.815871144664	2080.47286959035	536.9383942337022	1173.673098936617	2092.292196075022	571.6034828809809	1133.135519915799	2160.190725197248	531.55414914295	1189.705028604199	2170.571542255257	564.1809021875071	1148.327554927086	2362.669836412247	521.2365216179271	1215.823478185576	2323.1142248832	525.3541916506616	1149.578148391466	2310.929086143381	616.9195732220334	1233.745837278079	2267.782880871307	603.4065412800828	1180.416595093415	
1693	11.28	2340.171712373723	971.6996470160576	958.883415133888	2021.066279506635	57.59474709772523	1060.465794602357	2051.6937888072	62.12959616756085	1012.586436591796	2039.7032871241	105.0303455402511	1056.044055591171	2253.294583892671	1041.274976277206	911.3380061844244	2251.718116044971	54.68429293706257	1089.305962409943	2212.283186681709	37.9108014455749	977.9480036278877	2160.634791360382	1008.113672645494	1042.630029160964	2152.099972726278	160.3658085071612	990.5846856104121	2115.584527544539	187.7876833554386	1014.254828195782	2187.543432547171	227.2082543205166	960.767834801381	2153.154531746689	258.7357001088941	986.8486752273548	2315.661137865333	535.5540073737676	915.8449874515654	2269.24701698711	524.7562386730177	972.2453990518593	2270.699229672931	635.2930978260595	901.5534121536498	2226.689737491645	625.1035426958809	953.9349451311917	2355.557555050544	933.8146018548539	1166.250338775863	1985.111919919675	422.1567307074212	1135.735614469455	1982.306355986627	616.2988040430338	1099.701110885614	1988.955620904889	595.8304094457873	1143.039310158368	2025.928817166585	589.8762165328407	1103.540299006143	2287.630457566081	1024.356120866124	1226.955593875082	1927.71857209904	386.029381069619	1097.663593261992	1930.938509452569	434.7655376903663	1197.997736009903	2168.54434112426	994.7309424567102	1127.800997766266	2097.391424291	529.0639674629123	1175.315610658927	2107.036047898692	564.8585557329875	1135.238333537074	2177.311214290939	527.7496368311496	1190.846230067169	2185.623484492522	561.3942258585241	1149.860343326626	2380.122629816739	528.6519058506501	1216.015787104792	2340.674619569301	530.7300031490363	1150.458135371118	2322.897319669961	621.2557173126488	1234.322553627751	2280.065230689509	604.9972142597013	1181.607631967333	
